<svg width="24" height="24" viewBox="0 0 24 24" fill="none" xmlns="http://www.w3.org/2000/svg">
<path d="M18.4248 13.5762L18.424 13.5755L18.131 13.2835L18.1105 13.2631L18.0881 13.2447L17.7075 13.7085C17.7075 13.7085 17.5043 13.5418 17.3829 13.4915C17.2615 13.4411 17.1314 13.4152 17 13.4152C16.8686 13.4152 16.7384 13.4411 16.617 13.4915C16.4956 13.5418 16.3853 13.6155 16.2925 13.7085L15.8682 13.2842L15.868 13.2845L14.8821 14.2704C12.6588 13.1475 10.8534 11.3422 9.7306 9.11891L10.7177 8.13177L10.7178 8.13171C11.0178 7.83167 11.1863 7.42477 11.1863 7.00051C11.1863 6.57625 11.0178 6.16935 10.7178 5.86931L10.7177 5.86925L8.07075 3.22226C8.07056 3.22207 8.07037 3.22188 8.07018 3.22169C7.92999 3.08098 7.76341 2.96931 7.57999 2.89307C7.39632 2.81674 7.19938 2.77744 7.00047 2.77744C6.80157 2.77744 6.60463 2.81674 6.42096 2.89307C6.23755 2.9693 6.07098 3.08097 5.93079 3.22167C4.89757 4.25489 4.27174 5.62614 4.1682 7.08367C4.06464 8.54142 4.49049 9.98759 5.36753 11.1566L5.36758 11.1567L6.54947 12.7315C6.54951 12.7316 6.54955 12.7316 6.54958 12.7317C7.89128 14.5206 9.48042 16.1097 11.2693 17.4514C11.2694 17.4514 11.2694 17.4515 11.2695 17.4515L12.8443 18.6334L12.8444 18.6335C14.0134 19.5105 15.4596 19.9363 16.9173 19.8328C18.3749 19.7292 19.7462 19.1034 20.7794 18.0701C20.9201 17.9299 21.0317 17.7634 21.1079 17.58C21.1842 17.3964 21.2235 17.1994 21.2235 17.0005C21.2235 16.8016 21.1842 16.6047 21.1079 16.421C21.0317 16.2376 20.9201 16.0711 20.7794 15.9309C20.7792 15.9307 20.779 15.9305 20.7787 15.9302L18.4248 13.5762Z" stroke="#B79F7F" stroke-width="1.2"/>
</svg>
